<svg xmlns="http://www.w3.org/2000/svg" width="1280" height="760" viewBox="0 0 1280 760" role="img" aria-labelledby="title desc">
  <title id="title">ipssh architecture</title>
  <desc id="desc">ipssh runs inside Windows Terminal, calls native ssh.exe and scp.exe, and connects to a remote SSH server.</desc>
  <defs>
    <marker id="arrowDark" viewBox="0 0 10 10" refX="9" refY="5" markerWidth="5.5" markerHeight="5.5" orient="auto-start-reverse">
      <path d="M 0 0 L 10 5 L 0 10 z" fill="#334155"/>
    </marker>
    <marker id="arrowGreen" viewBox="0 0 10 10" refX="9" refY="5" markerWidth="5.5" markerHeight="5.5" orient="auto-start-reverse">
      <path d="M 0 0 L 10 5 L 0 10 z" fill="#047857"/>
    </marker>
    <marker id="arrowAmber" viewBox="0 0 10 10" refX="9" refY="5" markerWidth="5.5" markerHeight="5.5" orient="auto-start-reverse">
      <path d="M 0 0 L 10 5 L 0 10 z" fill="#b45309"/>
    </marker>
    <filter id="shadow" x="-8%" y="-10%" width="116%" height="125%">
      <feDropShadow dx="0" dy="8" stdDeviation="8" flood-color="#0f172a" flood-opacity="0.10"/>
    </filter>
    <style>
      .bg { fill: #f6f8fb; }
      .panel { fill: #ffffff; stroke: #d0d7e2; stroke-width: 1.3; filter: url(#shadow); }
      .group { fill: #f8fafc; stroke: #94a3b8; stroke-width: 1.5; }
      .ipssh { fill: #f8fafc; stroke: #475569; stroke-width: 1.8; }
      .lane { fill: #eef4fa; stroke: #cbd5e1; stroke-width: 1.2; }
      .nodeBlue { fill: #eff6ff; stroke: #2563eb; stroke-width: 1.6; }
      .nodeGreen { fill: #ecfdf5; stroke: #059669; stroke-width: 1.6; }
      .nodeAmber { fill: #fff7ed; stroke: #f59e0b; stroke-width: 1.5; }
      .nodeNeutral { fill: #ffffff; stroke: #cbd5e1; stroke-width: 1.2; }
      .decision { fill: #f0fdfa; stroke: #0f766e; stroke-width: 1.5; }
      .badgeDark { fill: #334155; }
      .badgeGreen { fill: #047857; }
      .title { fill: #0f172a; font: 700 28px "Segoe UI", Arial, sans-serif; }
      .subtitle { fill: #475569; font: 400 15px "Segoe UI", Arial, sans-serif; }
      .sectionTitle { fill: #0f172a; font: 700 17px "Segoe UI", Arial, sans-serif; }
      .label { fill: #0f172a; font: 700 16px "Segoe UI", Arial, sans-serif; text-anchor: middle; }
      .small { fill: #475569; font: 400 13px "Segoe UI", Arial, sans-serif; text-anchor: middle; }
      .tiny { fill: #64748b; font: 400 11.5px "Segoe UI", Arial, sans-serif; text-anchor: middle; }
      .badgeText { fill: #ffffff; font: 700 12px "Segoe UI", Arial, sans-serif; text-anchor: middle; }
      .lineDark { fill: none; stroke: #334155; stroke-width: 1.65; marker-end: url(#arrowDark); }
      .lineGreen { fill: none; stroke: #047857; stroke-width: 1.75; marker-end: url(#arrowGreen); }
      .lineAmber { fill: none; stroke: #b45309; stroke-width: 1.45; stroke-dasharray: 5 6; marker-end: url(#arrowAmber); }
      .lineMuted { fill: none; stroke: #94a3b8; stroke-width: 1.35; stroke-dasharray: 5 6; marker-end: url(#arrowDark); }
    </style>
  </defs>

  <rect class="bg" width="1280" height="760"/>
  <rect class="panel" x="36" y="30" width="1208" height="700" rx="18"/>

  <text class="title" x="76" y="78">ipssh architecture</text>
  <text class="subtitle" x="76" y="106">image paste ssh: keep native SSH terminal behavior, only intercept image paste.</text>

  <rect class="nodeBlue" x="70" y="180" width="200" height="64" rx="12"/>
  <text class="label" x="170" y="216">User</text>

  <rect class="nodeBlue" x="70" y="296" width="200" height="78" rx="12"/>
  <text class="label" x="170" y="329">Windows Terminal</text>
  <text class="small" x="170" y="351">native paste surface</text>

  <rect class="ipssh" x="310" y="138" width="620" height="568" rx="20"/>
  <text class="sectionTitle" x="342" y="174">ipssh process</text>
  <text class="subtitle" x="342" y="198">orchestrates native tools; does not implement SSH</text>

  <rect class="lane" x="342" y="224" width="556" height="138" rx="16"/>
  <rect class="badgeDark" x="364" y="246" width="156" height="30" rx="15"/>
  <text class="badgeText" x="442" y="265">terminal passthrough</text>

  <rect class="nodeBlue" x="392" y="298" width="168" height="48" rx="10"/>
  <text class="label" x="476" y="318">call ssh.exe</text>
  <text class="tiny" x="476" y="336">stdin / stdout owned by ssh</text>

  <rect class="nodeNeutral" x="628" y="288" width="208" height="64" rx="10"/>
  <text class="tiny" x="732" y="310">Text paste, Ctrl+C, Ctrl+D,</text>
  <text class="tiny" x="732" y="328">and full-screen apps pass</text>
  <text class="tiny" x="732" y="346">through unchanged.</text>

  <rect class="lane" x="342" y="400" width="556" height="292" rx="16"/>
  <rect class="badgeGreen" x="364" y="422" width="132" height="30" rx="15"/>
  <text class="badgeText" x="430" y="441">image sidecar</text>

  <rect class="nodeGreen" x="374" y="486" width="110" height="58" rx="10"/>
  <text class="label" x="429" y="509">Alt+V</text>
  <text class="small" x="429" y="529">hotkey</text>

  <path class="decision" d="M 522 515 L 570 486 L 618 515 L 570 544 Z"/>
  <text class="tiny" x="570" y="511">clipboard</text>
  <text class="tiny" x="570" y="527">image?</text>

  <rect class="nodeGreen" x="660" y="486" width="110" height="58" rx="10"/>
  <text class="label" x="715" y="509">Cache</text>
  <text class="small" x="715" y="529">last image</text>

  <path class="decision" d="M 812 515 L 864 486 L 916 515 L 864 544 Z"/>
  <text class="tiny" x="864" y="511">same</text>
  <text class="tiny" x="864" y="527">image?</text>

  <rect class="nodeAmber" x="504" y="578" width="174" height="42" rx="10"/>
  <text class="small" x="591" y="595">non-image paste</text>
  <text class="tiny" x="591" y="611">handled by terminal</text>

  <rect class="nodeGreen" x="626" y="646" width="230" height="42" rx="10"/>
  <text class="small" x="741" y="663">reuse cached remote path</text>
  <text class="tiny" x="741" y="679">no duplicate scp upload</text>

  <rect class="group" x="958" y="138" width="162" height="568" rx="18"/>
  <text class="sectionTitle" x="988" y="174">native tools</text>
  <text class="tiny" x="1039" y="196">Windows OpenSSH</text>

  <rect class="nodeBlue" x="982" y="248" width="114" height="64" rx="10"/>
  <text class="label" x="1039" y="276">ssh.exe</text>
  <text class="small" x="1039" y="296">terminal I/O</text>

  <rect class="nodeGreen" x="982" y="476" width="114" height="78" rx="10"/>
  <text class="label" x="1039" y="505">scp.exe</text>
  <text class="small" x="1039" y="525">mkdir if needed</text>
  <text class="tiny" x="1039" y="542">upload PNG</text>

  <rect class="nodeBlue" x="1142" y="324" width="90" height="96" rx="12"/>
  <text class="label" x="1187" y="360">SSH</text>
  <text class="label" x="1187" y="380">server</text>
  <text class="tiny" x="1187" y="400">remote host</text>

  <path class="lineDark" d="M 170 244 L 170 296"/>
  <text class="tiny" x="202" y="273">keyboard</text>
  <path class="lineDark" d="M 270 335 L 310 335"/>
  <text class="tiny" x="290" y="318">runs ipssh</text>

  <path class="lineDark" d="M 560 306 C 696 246, 840 246, 982 280"/>
  <text class="tiny" x="760" y="254">native terminal path</text>
  <path class="lineDark" d="M 1096 280 C 1124 280, 1136 325, 1142 356"/>
  <text class="tiny" x="1128" y="298">connects</text>

  <path class="lineMuted" d="M 1142 390 C 1068 460, 960 386, 836 336"/>
  <text class="tiny" x="1008" y="432">remote shell I/O</text>

  <path class="lineGreen" d="M 484 515 L 522 515"/>
  <path class="lineGreen" d="M 618 515 L 660 515"/>
  <text class="tiny" x="638" y="498">Yes</text>
  <path class="lineAmber" d="M 570 544 L 570 578"/>
  <text class="tiny" x="548" y="562">No</text>
  <path class="lineAmber" d="M 504 599 C 370 598, 262 466, 170 374"/>

  <path class="lineGreen" d="M 770 515 L 812 515"/>
  <path class="lineGreen" d="M 916 515 L 982 515"/>
  <text class="tiny" x="950" y="499">No: upload</text>
  <path class="lineGreen" d="M 864 544 C 846 594, 794 636, 741 646"/>
  <text class="tiny" x="834" y="600">Yes</text>
  <path class="lineGreen" d="M 1096 515 C 1128 506, 1138 420, 1142 388"/>
  <path class="lineGreen" d="M 1187 420 C 1202 574, 1110 667, 856 667"/>
  <text class="tiny" x="1048" y="690">remote file path</text>
</svg>
